<svg xmlns="http://www.w3.org/2000/svg" width="512" height="512" viewBox="0 0 512 512">
  <rect width="512" height="512" rx="112" fill="#f4e4bc"/>
  <path d="M310.9,141.2L310.5,141.6L310.5,142.4L309.9,143.3L308.8,144.5L308.5,145.5L308.9,146.8L309,148.3L308.8,149L308.3,149.2L308.2,149.6L308.5,150.2L308.5,151L308.3,151.9L307.8,153L307,154.3L306.8,155.1L307.2,155.5L307.4,156L307.4,156.5L307.2,157.2L306.9,158.1L306.4,158.7L305.8,159.2L305.6,159.7L305.8,160.4L305.9,161.1L305.7,161.8L305.8,162.5L306.2,163.2L306.2,164L305.5,165.6L305.3,166.6L305.7,170.9L305.5,171.5L305,172.2L304.5,172.3L303.9,172.1L303.4,172.6L303.1,174.5L302.3,178.6L302.4,179.6L303.1,181.2L303.4,182.2L303.6,183L303.7,184.4L303.3,185.1L303,185.2L302.5,185.6L303,187.4L303.5,188.2L304.7,189.9L309.4,192.2L311.4,193.6L313.6,195.5L314.9,197.4L315,199L313.2,201.4L313,203.5L313.3,204.9L314,206.2L315.7,207.9L317,208.6L318.7,208.5L319,209L319.2,209.4L319.4,212.9L319.4,214.2L318.9,215.4L315.6,221.1L312.8,224.5L311.8,226.4L311.4,228.4L310.5,229.4L305.7,232.5L298.1,235.3L292,236.7L290.6,237.2L280.8,238.8L278.9,239L276.4,238.9L274.4,239.1L272.2,238.6L270.2,238.1L269.1,236.9L267.7,236.8L267.4,237.4L268,239L267.7,240.9L268.1,242L268.9,242.2L269.6,242.7L270.3,243.5L269.2,243.6L269.6,244.2L270.1,244.5L270,245.8L269.6,248.8L268.5,249.5L268.2,249.7L267.8,250.3L267.1,253.3L266.9,255.2L267.2,256.4L268.5,259L268.1,260.7L267.2,261.6L263.5,263.5L262,264.2L259.7,264.8L256,264.9L254.6,264.7L251.4,263L249,262L246.9,261.2L244.8,260.7L245.1,260.4L245.2,260L244.6,259.7L244.2,259.7L242.8,260.6L242.2,261.5L242,262.3L242,264.2L242.3,265.8L243.3,269.8L243.4,272L242.9,274.7L243.6,276.4L244.3,277.1L246.2,277.8L246.9,278.3L247.7,278.2L247.9,278.4L247.8,278.8L247.3,279.5L247.3,280.2L248.7,280.4L250.1,280.3L251.6,280L252,279.4L252,278.4L250.3,278.2L250.4,277.8L251.8,277.3L253.5,276.6L254.4,276.5L255,277L255.4,277.4L255.9,278.6L256.2,280.1L256.3,282L256,283.7L255.8,284.3L255.3,285.1L252.2,286L251.4,285.7L250.5,284.4L250.3,283.1L249.6,282.2L248.1,281.4L246.6,281.7L245.1,282.9L243.7,283.3L243.2,284.5L246.8,286.3L248.5,286.8L249.1,286.8L249.6,287.1L249.1,287.8L248.6,288.2L246,289.2L244.9,289.8L243.6,291.1L241.7,294L241.1,294.6L240.8,295.4L240.6,297.4L241.3,300.7L240.6,302.1L241,303.6L240.8,304.6L240.1,306.1L237.5,308.5L237,310.2L238,311.2L237.9,312.1L237.6,312.9L236.5,312.9L232.6,312.4L231.1,313.3L229.8,314.4L229.4,314.9L229,315.2L226.2,315.8L225.7,316.2L222.8,320.3L221.6,322.9L220.1,325.5L219.7,326.5L219.6,328.1L219.8,329.4L220,330.4L220.6,331.7L221.6,333.2L227.2,339.2L228.4,339.7L234.3,340.4L235.6,341.2L236.4,342.6L236.7,343.8L236.4,346.8L236,347.7L235.3,348.6L233.9,349.7L232.3,350.3L232.7,350.7L233.4,350.6L234.9,350.3L235.5,350.6L236,351.8L235.1,352.3L234.8,352.9L234.2,353.8L230.7,357.3L228.9,358.4L227.2,359.8L224.9,361.2L224,362.1L222.8,363.8L220.9,365.7L218.9,369.8L218.9,370.6L219.1,371.2L218,378.4L217.6,379.3L216.8,380.2L214.7,381.7L213.7,381.9L212.3,381.1L211.6,380.1L210.9,378.6L209.9,376.9L209.9,377.5L210.2,378.5L210,379.5L207.7,380L207.1,380.5L209.2,380.3L210.6,380.6L211.2,381L211.7,381.7L212.2,382.7L211.8,383.2L210.7,383.6L209.2,384.4L207.5,385.9L206.5,387.6L206.1,388.8L205.6,391.2L205.5,392.8L204.8,394.1L203.6,395.2L203.7,395.5L204.5,394.9L205.1,394.7L205.6,396.2L206.3,399.2L206.7,401.3L206.6,401.9L206.4,402.8L204.9,403L203.6,402.9L202.7,403.3L203.2,403.7L204.1,403.5L205.3,404.5L206.6,404.1L207.3,404.7L207.7,405.2L209.8,409.6L211.6,412.4L212.4,414L212,414.8L211.9,413.8L210.7,413.5L209.5,413.2L207.6,412.5L205.1,411.5L202.5,411.5L200.4,410.6L198.2,409.6L193.4,409.5L189.2,409.4L184.9,409.4L182.1,409.3L180.3,409.3L179.8,408.9L180,407.7L179.3,406.8L178.3,405.7L177.1,404.9L176.5,403.9L175.8,402.7L176.2,401.6L176.8,399.1L176.8,398L176.3,397.3L176.1,396.2L176.3,395.7L176.7,395.3L177,393.5L176.8,391.7L176.4,390.2L176,389.5L175.4,389.2L174.9,389.1L173.9,389.7L172.2,389.5L171.7,389.8L170.8,390.4L169.7,391.3L169,391L168.8,390L168.4,389.2L168.1,388.4L167.9,387.2L167.6,385.6L166.9,383.7L165.9,382.2L165.8,380.9L165.6,379.2L166.1,377.5L165.8,376.2L165.2,374.6L165.4,372.9L166,371.9L166.2,370.8L169.2,370.6L169.1,369L169.6,367.7L170.1,366.6L170.6,366.1L171.7,365.6L172.9,364.9L173.6,364.2L174,363.5L174.1,362.6L174.2,361.7L174,359.7L174.2,359.1L175,358.3L176.3,357.6L176.9,355.8L176.6,354.1L175.8,352.8L174.9,352.3L174.8,350.9L175.3,349.7L175.8,348.3L176.4,346.8L176.4,345.7L177,345.1L178.6,343.7L179.2,342.4L179.8,342L180.4,341.8L180.5,341L180,340.3L179.9,339.3L180,338.3L180.1,336.9L180.9,336.3L182,335.2L182.3,334.5L182.3,333.5L182,331.5L181.7,330.1L181.6,329.5L181.1,328.6L180.7,328L181.3,327.2L182.4,326.4L182.9,325.2L182.5,324.3L181.8,323.7L181.6,322.2L181.9,320.3L182.4,319.8L184,319.5L184.2,318.5L185.5,317.1L185.4,315.8L184.6,315L183.8,313.7L183.2,312.6L181.3,312L179.2,311.6L178.9,310.5L179,309.9L180,310.2L181.5,309.9L182.7,309.9L183.6,309.8L184.5,309.6L185.4,310.1L186.3,309.8L186.7,308.1L187.2,307.2L187.3,306.4L186.7,305.7L185.7,305.5L181.2,304.9L181.1,304.2L181.1,303.1L181.3,302L181.3,301.4L181.7,300.9L182.2,299.9L182.5,299.2L182.2,298.3L181.4,296.9L182,296.3L182,295.6L181.8,294.9L181.1,294.1L180.4,293L180.4,291.8L181.2,291.5L181.7,291.2L181.8,290.4L181.5,289.6L180.5,289.3L179.1,288.8L178.6,288.3L178.2,287.3L178.5,284.7L178.4,283.1L178.3,282.2L178.6,281.5L179.1,280.9L178.8,279.5L178.4,278.8L178.6,278.2L179,277.6L179.3,276.9L179.6,276.7L180.1,277.2L180.8,276.9L181.7,276.3L181.8,275.7L181.7,274.7L181,272.3L180.4,270.8L180.5,270.3L180.7,269.7L180.6,267.7L180.6,266.5L180.7,262.9L180.7,261.6L180.1,260.4L180.2,259.2L180.6,258.3L181,257.2L181.3,256.2L181.7,255.7L182.2,255.5L182.3,254.9L182.1,254.5L181.4,253.8L181.2,253L181.4,252.4L181.7,252L182.3,252L182.7,251.2L182.8,250.1L182.9,249.6L182.6,248.9L182.3,247.4L182.1,246.6L182.4,246.2L182.7,246.1L183.3,246.3L183.8,246.2L183.8,245.7L183.9,245.3L184,244.9L184.4,243.8L184.9,242.5L185,241.5L184.8,238.9L185,238.3L185.4,237.8L186.1,237.3L186.9,236.9L187.9,236.2L189.1,236L189.6,235.4L190,234.5L190.1,233.7L189.6,233.2L189,232.6L188.7,231.1L188.5,229.7L188.4,227.9L187.8,226.4L187.2,224.7L187,223.2L187.2,222.3L187.5,221L187.2,220.4L186.9,219.4L187.2,218.5L187.6,217.3L187.5,216.6L187.2,215L186.9,214.2L187.2,213.2L187.7,212.3L188.1,211.9L188,211.1L188.2,210.5L188.9,210.1L189.6,209.3L190,209.2L190.6,209.2L191,209L191.1,208.4L191.2,207.8L192.1,207L192.7,206.2L193.6,206.1L194.1,205.3L194.1,204.3L194,203.2L194.3,202L194,200.2L194,199.2L193.6,198.4L193.7,197.6L193.5,197L192.9,196.8L192.7,196.1L193,195.8L193.6,195.5L194.2,195L194.7,192.5L195,191.8L195.2,190.9L195.2,190.4L195.5,189.7L195.9,188.7L196.5,187.7L196.9,187.1L197.2,186.2L197.3,185.6L197.8,185.4L198.3,185.3L198.9,185.1L199.1,184.8L199.1,184.3L199.1,183.2L198.9,181.5L198.8,179.4L198.9,177.9L199.3,176.5L199.6,175.7L199.5,175.1L199.4,174.5L198.7,174.1L198.1,174.4L197.6,174.3L197,173.6L196.8,172.8L196.9,171.7L197.4,171L197.6,170.1L197.3,169.8L196.7,169.3L196.2,167.3L196.3,165.6L195.7,165.2L195.5,163.9L194.9,163.4L194.7,162.4L194.5,161.5L194.5,161L195.1,160.9L195.5,160.1L195.2,159.6L194.8,159.3L194.2,159.3L193.7,158.8L193,157L192.5,155.9L192.6,154.4L192.7,153.2L193,152.2L193.1,151.4L193.5,151L193.9,151.2L194.2,151.1L194.6,150.5L195,150.1L195,149.8L194.7,149.4L194.6,148.8L194.9,148.1L195.3,146.4L196,144.6L196.3,143.9L196.3,143.3L196.4,143.1L196.9,143.4L198.2,143L198.7,142.2L198.8,141.5L199.2,141.1L199,140.5L198.5,140.3L198.2,140.1L198.3,139.4L198.5,137.9L198.5,136.8L198,134.5L197.6,132.2L197.8,131.4L198.7,130.3L199.4,129.9L199.5,129.3L200.2,126.5L200.2,125L200.7,124.2L201,122.7L202.1,121.3L202.5,120.5L203,120.4L203.2,120.1L203.8,119.1L204.6,118.1L205.4,117.6L205.5,116.8L205.8,115.7L206.5,114L206.9,112.7L207.5,112.3L208.1,110.6L208.3,109.7L209,109.3L209.6,109.2L210.1,109.6L210.6,109.5L211.2,109L212.3,108.6L212.9,108.4L213.1,107.8L213.1,106.9L212.6,106.1L211.6,104.7L210.7,103.2L210.6,102.7L210.6,102.2L210.8,101.5L211.2,100.7L212.3,99.5L212.2,98.6L211.4,95.3L211.1,94.4L210.6,92.7L210.6,92L211.1,90.2L211.5,89.4L212.1,89.3L212.4,89.1L212.5,88.7L212.2,88.3L212,87.8L211.8,87L211.2,86.8L210.9,86.2L210.9,85.3L211.4,84.1L212,83.7L212.2,83.2L212.8,82.8L213.3,82.4L213.8,81.7L215.6,80.9L217.1,80.2L220,79L221.9,78.1L222.1,77.5L222.3,77.1L223.2,74.1L224.4,70.2L225.1,67.8L223.4,66.1L223.7,65.6L224.7,64.4L224.9,63.4L225.3,63L227,62L227.3,61.3L227.5,60.6L227.8,60.1L228.5,60L229.7,59.5L231,59.1L231.4,58.5L231.7,57.4L232.1,56.3L232.3,56L232.7,56L233.4,56.3L233.8,56.8L235.6,58.2L236.4,58.9L237.2,59L238.7,58.9L239,58.9L242.9,59L243.5,59L244.9,59.4L245.6,59.6L246.1,59.8L247,60.2L247.8,61.6L248.2,62.7L248.5,63.7L249.1,65.5L249.6,66.1L249.7,65.8L250.1,63.9L250.6,62.8L251.3,61.6L252.8,58.7L253.3,58.2L253.8,58L254.2,58L254.6,58.2L255.1,58.2L255.5,58L259.2,57.9L263.1,57.9L263.2,57.9L263.4,58.4L264,59.5L264.7,60.1L264.9,60.3L265.1,60.5L265.1,60.8L265.9,61.4L267.4,62.3L268.8,64L270.2,66.5L271.4,68.4L272.6,69.6L273.7,70.5L274.7,71L275.2,71.4L275.3,71.7L276.2,72.4L278,73.4L279.2,74.3L279.6,75.3L281.4,76.3L284.4,77.4L286.6,77.9L288,77.9L290,78.7L292.6,80.4L294.2,81.6L294.8,82.3L296.5,83.4L300.7,85.6L302.5,86.2L303.4,86.7L304,87.4L304.5,87.6L305,87.3L306.1,87.6L307.7,88.3L308.9,89.2L310.5,91.1L311,91.9L311.3,92.6L311.2,93.2L310.7,93.8L309.8,94.5L309.5,94.8L309.5,95.1L309.3,95.7L308.5,97L308.3,97.6L308.3,98L307.8,98.5L306.5,99.3L306.3,99.7L306.2,100.2L306.1,100.5L305.9,100.6L305.6,101L305.4,101.8L305.4,102.8L305.6,103.9L305.5,104.3L305.3,104.5L305.1,104.8L305,105.3L304.8,105.8L304.4,106L304.3,106.3L304.3,106.6L304.1,107L303.3,107.3L302.9,107.8L302.7,108.4L302.3,109L301.7,109.4L301.4,110.1L301.8,111.3L305.8,110.9L309,111.4L312.9,112.5L315.4,112.9L316.7,112.6L317.6,112.6L318.2,113.1L319,113.2L320,112.9L320.9,113.1L321.6,113.8L322.2,113.6L322.7,112.6L323.3,111.9L324.1,111.4L324.9,111.3L326,111.4L326.8,111.8L327.4,112.4L328.1,112.4L328.9,111.8L329.2,111.1L329.2,110.2L329.5,109.6L330.1,109.3L330.6,108.8L330.8,108.2L331.5,107.8L332.8,107.7L333.4,107.4L333.5,106.9L333.8,106.5L334.5,106.1L335,105.6L335.3,105.1L335.7,104.7L336.2,104.5L336.9,103.3L337.6,101L338,98L338.2,93.6L338.9,93.6L339.2,93.9L339.7,94.1L340.3,93.7L340.7,93.6L341.5,93.6L341.9,93.1L342.4,93.1L342.7,93.3L343,93.6L343.7,93.6L344.2,94.3L344.8,94.6L345,95.4L345.4,97.5L346.1,98.7L346.8,100.2L346.8,100.8L346.4,101.5L346.4,102.4L346.1,104.7L346,105.5L346.3,106.1L346.4,106.9L346,107.9L345.3,109.3L344.6,109.7L344.4,109.8L343.4,110.6L342.7,110.9L342.4,110.7L341.9,111.1L341.4,112L340.8,112.4L339.7,112.7L339.4,112.8L338.7,112.8L338.2,113L337.7,113.5L337.2,113.7L336.7,113.6L336.2,113.7L335.8,114.2L335.6,114.8L335.5,115.4L335.1,115.8L334.3,116L334,116.3L334.1,116.7L333.7,117L332.4,117.3L331.5,117.9L330.9,118.8L330.3,119.3L329.3,119.6L328,120.5L327.9,121L328.4,121.5L328.5,122L328.4,122.3L328,122.4L327.3,122.1L326.8,122L326.6,122.2L326.4,122.5L326.4,123L326.2,123.3L325.7,123.5L325.4,123.8L325.2,124.4L324.6,125.1L323.5,126L322.6,127.2L322,128.7L321.2,129.7L320.3,130.2L319.7,130.9L319.4,131.8L318.5,133.1L317,135L315.6,136.3L314.4,137L313.7,137.7L313.5,138.6L312.7,139.6L311.3,140.7ZM210.1,453.2L210.1,449.6L210.2,444.8L210.2,440.6L210.2,436.5L210.2,432.3L210.3,428.1L210.3,423.7L210.3,419.2L210.8,419.8L213,422.9L213.5,424.2L213.9,425.7L213,424.7L212.1,425.3L211.7,426.2L211.3,427.1L211.3,427.8L211.6,428.4L212.5,428.9L214.6,429.1L214.7,429.3L216,433L216.6,433.9L217.3,434.6L219,436.5L220.6,438.6L222.5,440.5L224.5,442.1L226.4,443.2L228.2,444.7L230.1,446.6L232.2,448.1L234.4,449.1L236.6,450L240.1,449.6L241.1,449.8L241.8,450.4L241.1,452.1L240.3,453.5L239.1,454.1L237.9,454.3L236.8,454.3L235.7,454L234.7,454.2L233.8,454.8L232.7,455.1L231.7,455.1L230.7,455.6L229.6,456L228.6,455.7L225.8,454.3L224,454L217.9,453.4L216,453.1L214.1,452.6L213,452.6L211.6,452.9L210.4,452.9ZM247.5,451L248.5,451.3L250.5,451.1L251.6,451.1L252.1,451.2L252.3,451.4L253.6,451.1L254.2,451.1L254.1,451.8L252.8,452.5L252.3,452.2L249.6,452.3L248.4,452.9L247.9,452.9L246.7,453.9L245.9,453.3L245.7,452.7L246.2,451.9L246.8,451.9L247.2,451.6ZM271.9,241.1L272,241.9L271.5,241.8L270.4,241.1L270,240.4L270,240.1L271.1,240.4L271.6,240.7Z" fill="#2d1e0f" stroke="#4a3219" stroke-width="8" stroke-linejoin="round"/>
</svg>
